<?xml version="1.0" encoding="utf-8"?>
<!-- Generator: Adobe Illustrator 19.1.0, SVG Export Plug-In . SVG Version: 6.00 Build 0)  -->
<svg version="1.1" xmlns="http://www.w3.org/2000/svg" xmlns:xlink="http://www.w3.org/1999/xlink" x="0px" y="0px"
	 viewBox="0 0 600 600" style="enable-background:new 0 0 600 600;" xml:space="preserve">
<style type="text/css">
	.st0{fill:url(#SVGID_1_);stroke:#010202;stroke-width:2;stroke-miterlimit:10;}
	.st1{fill:url(#SVGID_2_);stroke:#010202;stroke-miterlimit:10;}
	.st2{fill:none;stroke:#010202;stroke-miterlimit:10;}
	.st3{fill:#010202;}
	.st4{fill:none;stroke:#010202;stroke-width:2;stroke-miterlimit:10;}
</style>
<g id="Contour">
	<linearGradient id="SVGID_1_" gradientUnits="userSpaceOnUse" x1="291.562" y1="402.4358" x2="291.562" y2="135.7104">
		<stop  offset="0" style="stop-color:#CFCFCF"/>
		<stop  offset="0.1569" style="stop-color:#CBCBCB"/>
		<stop  offset="0.2975" style="stop-color:#C1C1C1"/>
		<stop  offset="0.4319" style="stop-color:#AEAEAE"/>
		<stop  offset="0.5624" style="stop-color:#959595"/>
		<stop  offset="0.6902" style="stop-color:#737373"/>
		<stop  offset="0.8159" style="stop-color:#4B4B4B"/>
		<stop  offset="0.9376" style="stop-color:#1B1B1B"/>
		<stop  offset="1" style="stop-color:#000000"/>
	</linearGradient>
	<path class="st0" d="M196.5,138.1l23.7,31.5c0,0,2.6,89,3.5,90.7c0.9,1.7,8.3,2.3,9.8,1.8s0.3-3.3,6-3.9c5.7-0.6,14.3-2.4,14.9-2.5
		s-0.6-1.3,2.4-1.8c3-0.6,7.1,0.6,9-3.6c1.8-4.1,5.3-7.1,6.7-7.8c1.4-0.7,7.9-4.6,12-5.1s14.4-1.3,20.9,1.8
		c6.6,3.1,11.8,8.9,13.7,11.7c1.7,1,6.7,1.3,8.3,2.4c1.6,1.2,2.2,2.8,3.8,2.8c1.6,0,9.9,0.6,12,1.4c2.1,0.8,4.8,0.3,6.1,3.9
		c4.5,0.1,9.8,0.5,10.6-1.7c0.8-2.2,0.2-20.5,0-22c-0.2-1.5,1.2-42.1,1.2-42.1l0.6-22.9c0,0,0.3-6.4,2.5-8.9
		c2.2-2.4,10.7-16.6,12.4-18.1c1.7-1.5,5.4-7.3,5.9-7.9s5.1-7.5,5.1,5.1c0,12.7,0,21.4,0,21.4l1,19.8c0,0,1.4,22.9,1.5,25.8
		c0.1,2.9,3.3,49.9,3.1,53.6c-0.2,3.7,0.5,23.1,0,26.6c-0.5,3.5-2.8,60.6-3.3,63.7c-0.6,3.1-0.7,34.1-1,35.4
		c-0.3,1.4,2.6,19.2-6.1,8.4c-8.7-10.8-18.4-25.5-18.4-25.5s1-6-2-5.5c0.8-8.1,0.6-33.9,0.2-35.3c-0.3-1.4-2.6-48.5-2.4-49.5
		c0.2-0.9,2.1-5.6-6.4-5.8c-8.5-0.1-5.3,3.3-5.3,3.3l-8.6,2.1c0,0-8.7,0.7-10.4,2.3c-1.6,1.6-6.4,2.9-8.5,2.9s-13.6,15.4-19.3,14.8
		c-4.4,1.4-10.6,5.2-15.2,0.5c-5-0.1-11.6-2.2-13.1-4.5c-1.5-2.3-6-7.8-7.7-9.4c-1.7-1.6-15.2-3.8-19.9-5.3
		c-4.7-1.5-10.8-2.3-11.6-5.6c-3.3-1.4-11-0.3-10.5,6.9c0.6,7.2,0.3,31.3-0.5,33.5c-0.8,2.2-0.3,48.4-0.3,48.4s2.1,4.1-2.8,10.4
		s-14.5,21.2-15.2,21.7c-0.7,0.6-7.6,11.2-7.6-3.8s-3.5-61.2-3.8-62.8c-0.3-1.6-3.7-74.8-3.3-76.5s2.9-68.4,3-69.4
		S192.8,136.5,196.5,138.1z"/>
</g>
<g id="Rond_intérieur">
	<radialGradient id="SVGID_2_" cx="291.3062" cy="269.804" r="20.1874" gradientUnits="userSpaceOnUse">
		<stop  offset="0" style="stop-color:#808080"/>
		<stop  offset="0.1712" style="stop-color:#707070"/>
		<stop  offset="0.5036" style="stop-color:#474747"/>
		<stop  offset="0.9606" style="stop-color:#060606"/>
		<stop  offset="1" style="stop-color:#000000"/>
	</radialGradient>
	<path class="st1" d="M291.7,249.5c0,0,19.1-0.3,19.6,19.6c0.6,19.9-19.6,21-19.6,21s-18.9,0.8-20.4-20.3
		C269.8,248.7,291.7,249.5,291.7,249.5z"/>
	<polygon class="st2" points="291.7,260.2 298.2,262.8 301.4,269.8 299.1,276.4 291.7,279 285.3,276.4 282.2,269.8 284.6,262.9 	"/>
	<line class="st2" x1="291.7" y1="249.5" x2="291.7" y2="260.2"/>
	<line class="st2" x1="298.2" y1="262.8" x2="306.1" y2="255.2"/>
	<line class="st2" x1="301.4" y1="269.8" x2="311.4" y2="269.8"/>
	<line class="st2" x1="299.1" y1="276.4" x2="306.1" y2="283.8"/>
	<line class="st2" x1="291.7" y1="279" x2="291.7" y2="290.1"/>
	<line class="st2" x1="285.3" y1="276.4" x2="277.4" y2="284.6"/>
	<line class="st2" x1="282.2" y1="269.8" x2="271.3" y2="269.8"/>
	<line class="st2" x1="284.6" y1="262.9" x2="276.7" y2="254.4"/>
</g>
<g id="Ailes">
	<path class="st3" d="M223.7,260.4c0,0-5.1-0.6-6.2-6c-1.1-5.4,3.7-51.8,3.7-51.8"/>
	<polyline class="st3" points="220.2,169.7 212.6,234.3 201.1,144.3 	"/>
	<path class="st3" d="M199,157.4l8.7,92.1c0,0-2.6,12.2-1.7,14.8c-4.9,0.6-11.1,0-11.1,0L199,157.4z"/>
	<path class="st3" d="M194.9,274.9H206c0,0,2.1,16.4,1.7,19.4c-0.4,3-6.4,87.3-6.4,87.3L194.9,274.9z"/>
	<polygon class="st3" points="220.7,370.6 205.1,391.4 214.7,295.8 	"/>
	<polygon class="st3" points="220.7,336.3 218.6,284.6 222,282.8 	"/>
	<path class="st3" d="M361.2,260.2c0,0,5.8-2.8,4.7-11.6s-3.2-50.4-3.2-50.4l-1.6,41.8V260.2z"/>
	<path class="st3" d="M380.7,144.1L366,164.8c0,0-3.7,2.4-0.8,17.8s4.7,51.5,4.7,51.5L380.7,144.1z"/>
	<path class="st3" d="M383.1,153.9c0,0-5.4,72.2-6.1,75.3s-1.6,29.3,0.8,33.7c4,0,10.9,0,10.9,0S386,214,386,209.1
		S382.7,155.2,383.1,153.9z"/>
	<path class="st3" d="M377.8,274.4c0,0,10.8-2.8,10.9,0c0.1,2.8-4.5,108.4-4.5,108.4l-7.1-80.2C377.1,302.6,374.4,284.2,377.8,274.4
		z"/>
	<path class="st3" d="M360.1,279c0,0,6.5-0.6,6,7.2c-0.5,7.8-3.3,45.6-3.3,45.6L360.1,279z"/>
	<polygon class="st3" points="371.3,306.9 380.9,390.5 365.5,370.9 	"/>
	<path class="st4" d="M264.1,252.6c0,0-9.3,17.8,1.3,35.7"/>
	<path class="st4" d="M319,251.1c0,0,12,17.9,1.4,35.8"/>
</g>
<g id="Calque_5">
</g>
</svg>
