<?xml version="1.0" encoding="utf-8"?>
<!-- Generator: Adobe Illustrator 19.1.0, SVG Export Plug-In . SVG Version: 6.00 Build 0)  -->
<svg version="1.1" id="Contour" xmlns="http://www.w3.org/2000/svg" xmlns:xlink="http://www.w3.org/1999/xlink" x="0px" y="0px"
	 viewBox="0 0 600 600" style="enable-background:new 0 0 600 600;" xml:space="preserve">
<style type="text/css">
	.st0{fill:url(#SVGID_1_);stroke:#010202;stroke-width:2;stroke-miterlimit:10;}
	.st1{fill:#444444;stroke:#010202;stroke-miterlimit:10;}
	.st2{fill:#444444;stroke:#010202;stroke-width:0.9495;stroke-miterlimit:10;}
	.st3{fill:none;stroke:#010202;stroke-miterlimit:10;}
	.st4{fill:#010202;stroke:#010202;stroke-miterlimit:10;}
	.st5{fill:#555454;stroke:#010202;stroke-miterlimit:10;}
</style>
<linearGradient id="SVGID_1_" gradientUnits="userSpaceOnUse" x1="79.9732" y1="288.2036" x2="534.5761" y2="288.2036">
	<stop  offset="0" style="stop-color:#1A1A1A"/>
	<stop  offset="0.1007" style="stop-color:#1E1E1E"/>
	<stop  offset="0.1907" style="stop-color:#282828"/>
	<stop  offset="0.2767" style="stop-color:#3B3B3B"/>
	<stop  offset="0.3602" style="stop-color:#545454"/>
	<stop  offset="0.4411" style="stop-color:#757575"/>
	<stop  offset="0.5037" style="stop-color:#949494"/>
	<stop  offset="1" style="stop-color:#999999"/>
</linearGradient>
<path class="st0" d="M289.5,497.8c0,0,32.1,5,39.9,0c7.8-5,31.2-33.5,31.2-33.5l39.3-52.6l39.6-50.8l15.1-21h-15.1
	c0,0,5.4-8.1,7.8-10.5c2.3-2.3,10.9-15.1,10.9-15.1s19.8-2.3,25.2-9.7s30.7-44.2,30.7-44.2l16.7-21.7h-4.3l8.1-8.9c0,0-5-3.9-12-5.8
	c-7-1.9-76.1-16.3-76.1-16.3s-12.8-1.6-17.5-8.1c-4.7-6.6-9.1-11.6-17-12.4c-7.9-0.8-17.9-7.4-20.3-10.5s-16.3-19-17.5-21
	c-1.2-1.9-12.4-8.5-17.1-8.9c-4.7-0.4-31.8-4.7-34.1-5s-4.3-3.1-3.9-7c0.4-3.9,0.8-7,8.5-7.8c7.8-0.8,50.4-3.5,50.8-13.6
	c0.4-10.1-1.2-14-6.6-15.1c-5.4-1.2-5-5-5-7.4c0-2.3,2.4-12.8-0.6-13.7s-14.5-0.7-14.7,0s-2.2,2.9-1.3,6.6s1.7,12.3,0.2,11.9
	s-15.8-1.5-17.1-1.8s-2.6-3.5-3.7-3.5s-4.8-1.5-3.3-3.7c1.5-2.2,2.8-1.5,2.8-5.3s-8.6-1.7-11.4-1.7c-2.8,0-5.3-1.8-6.8-1.7
	s-13.4,0.9-14.7,0.9s-0.2,1.7-1.7,1.7s-10.8,0-11.8,0s-3.1,0.9-2.9,3.3s1.3,3.1,3.3,3.3s1.8,5.1,0.6,5.1s-5.1,0-7.5,2.6
	s-13,3.9-14.9,2.9s-2.9-5.9-2-7.5s1.5-7.5-0.3-9.4c-1.9-1.8-6.1-3.9-7.6-3.3s-5.1,1.7-6.2,3.9s-2.6,3.1-1.7,7.3
	c0.9,4.2,3.3,7,1.3,9.4s-6.4,1.8-8.6,2.9c-2.2,1.1-2.4,5.1-2.4,8.4s-3.1,11.6,4.2,12.7c7.3,1.1,24.4,3.7,27,3.7s19.7,1.5,21.5,2
	s7.9-0.4,5.7,9.2c-2.2,9.6-39.3,11.6-44.1,15.1s-15.1,14.7-16.9,17.8c-1.8,3.1-12.5,13.2-16.2,16.5s-10.3,5.3-16.5,6.6
	c-6.2,1.3-17.6,11.9-18.4,16.9s-65,19.7-65,19.7s-31.2,6.2-32.1,10.1c-0.9,3.9-5.5,9.4-1.7,13.6c3.9,4.2,36.2,42.6,36.2,42.6
	l12.3,16.7c0,0,4.6,8.4,15.8,10.1s27,20.2,27,20.2s-9.2,5-5.9,10.5c3.3,5.5,11.9,16.7,13.4,18.4s14.9,20.9,17.1,22.6
	s38.4,46.8,38.4,46.8s5.5,7.5,13.4,13.2c7.9,5.7,21.7,27,21.7,27S285.4,495.7,289.5,497.8z"/>
<polyline class="st1" points="356.6,175.8 355.8,161 337.8,157.3 306,151.1 247.5,166.8 247.5,177.8 "/>
<polyline class="st1" points="242.4,197.1 239.7,179.5 304.2,165.7 367,177.7 367,185.6 367,191.2 "/>
<polyline class="st2" points="243.5,212.2 238.1,196.4 307.3,179.5 378.5,192.1 376.3,210.4 "/>
<path class="st1" d="M227.3,216.6c0,0,7,6.1,20.7,5.1c13.8-1.1,42.5-6.7,47.8-7.9c5.3-1.3,13.5-2.7,20.5-0.6c7,2.1,22.5,2.4,28,2.8
	c5.5,0.4,32.2,3.4,41.9-1.1s-50.8-8.5-53.1-9.3c-2.3-0.8-24.6-7-25.8-6.6c-1.3,0.4-12.3,3.4-15.5,4.4
	C288.7,204.6,233.9,212.6,227.3,216.6z"/>
<path class="st3" d="M309,212.1"/>
<path class="st3" d="M307.3,200.1"/>
<polyline class="st1" points="307.3,289.2 368.3,297.2 370.8,291.9 368.2,287.1 355.2,285.1 307.3,278.6 "/>
<polyline class="st3" points="307.3,283.7 366.9,292.5 368.3,297.2 "/>
<polyline class="st1" points="307.3,373.2 323.3,373.2 345.8,345 343.7,339.4 307.3,335.1 "/>
<polyline class="st3" points="307.9,367.5 322.6,367.5 343.7,339.4 "/>
<polyline class="st1" points="307.3,373.2 291.2,374 268.9,346.9 270.8,343 307.3,335.1 "/>
<polyline class="st3" points="307.3,367.5 292.5,367.5 270.8,343 "/>
<polyline class="st3" points="86,239.4 143.6,300 163.8,297.2 189.5,319.2 171.4,324.1 292.2,447.7 329,447.7 445,316.3 
	427.6,306.7 452,283.7 474.2,288.5 528.3,226.9 "/>
<polygon class="st4" points="297.9,86.2 301,91.1 310.3,91.1 313,86.2 "/>
<path class="st1" d="M244.7,91.9c0,0,8.2,6.1,14.6-0.8c0,0,1.7-5.2,1-7.9c-0.8-2.7-2.8-4.7-6.9-5.6c-4.2-0.9-7.4,3.1-7.4,3.1
	s-1.6,2.4-1.9,3.2c-0.3,0.8-0.8,3-0.3,4.9C244.2,90.6,244.7,91.9,244.7,91.9z"/>
<path class="st5" d="M351.1,87.9c0,0,8.3,10.7,16.1,0c0,0,0.5-4,0.6-5.3c0-1.3,0.6-4.8-1-5.3c-1.5-0.5-8.2-1.4-10.4-0.8
	c-2.1,0.6-4.1-0.5-5.4,1.7S349.9,85.8,351.1,87.9z"/>
<polyline class="st1" points="307.3,289.2 246.2,297.2 243.8,291.9 246.3,287.1 259.3,285.1 307.3,278.6 "/>
<line class="st3" x1="368.2" y1="287.1" x2="366.9" y2="292.5"/>
<polyline class="st3" points="307.2,284 247.5,292.8 246.1,297.5 "/>
<line class="st3" x1="246.2" y1="287.4" x2="247.5" y2="292.8"/>
<path class="st3" d="M289.6,128.5c0,0,13.1,2.6,34-0.8"/>
<line class="st3" x1="307.3" y1="436.9" x2="306" y2="151.1"/>
</svg>
