<?xml version="1.0" encoding="utf-8"?>
<!-- Generator: Adobe Illustrator 19.1.0, SVG Export Plug-In . SVG Version: 6.00 Build 0)  -->
<svg version="1.1" xmlns="http://www.w3.org/2000/svg" xmlns:xlink="http://www.w3.org/1999/xlink" x="0px" y="0px"
	 viewBox="0 0 600 600" style="enable-background:new 0 0 600 600;" xml:space="preserve">
<style type="text/css">
	.st0{fill:url(#SVGID_1_);stroke:#010202;stroke-width:2;stroke-miterlimit:10;}
	.st1{fill:none;stroke:#010202;stroke-width:2;stroke-miterlimit:10;}
	.st2{fill:url(#SVGID_2_);stroke:#010202;stroke-miterlimit:10;}
	.st3{fill:url(#SVGID_3_);stroke:#010202;stroke-miterlimit:10;}
	.st4{fill:url(#SVGID_4_);stroke:#010202;stroke-miterlimit:10;}
	.st5{fill:none;stroke:#010202;stroke-miterlimit:10;}
	.st6{fill:url(#SVGID_5_);stroke:#010202;stroke-miterlimit:10;}
	.st7{fill:url(#SVGID_6_);stroke:#010202;stroke-miterlimit:10;}
	.st8{fill:url(#SVGID_7_);stroke:#010202;stroke-miterlimit:10;}
	.st9{fill:url(#SVGID_8_);stroke:#010202;stroke-miterlimit:10;}
	.st10{fill:url(#SVGID_9_);stroke:#010202;stroke-miterlimit:10;}
	.st11{fill:url(#SVGID_10_);stroke:#010202;stroke-miterlimit:10;}
	.st12{fill:url(#SVGID_11_);stroke:#010202;stroke-miterlimit:10;}
	.st13{fill:url(#SVGID_12_);stroke:#010202;stroke-miterlimit:10;}
	.st14{fill:url(#SVGID_13_);stroke:#010202;stroke-miterlimit:10;}
	.st15{fill:url(#SVGID_14_);stroke:#010202;stroke-miterlimit:10;}
	.st16{fill:url(#SVGID_15_);stroke:#010202;stroke-miterlimit:10;}
	.st17{fill:url(#SVGID_16_);stroke:#010202;stroke-miterlimit:10;}
	.st18{fill:url(#SVGID_17_);stroke:#010202;stroke-miterlimit:10;}
	.st19{fill:url(#SVGID_18_);stroke:#010202;stroke-miterlimit:10;}
	.st20{fill:url(#SVGID_19_);stroke:#010202;stroke-miterlimit:10;}
	.st21{fill:url(#SVGID_20_);stroke:#010202;stroke-miterlimit:10;}
</style>
<g id="Contours">
	<linearGradient id="SVGID_1_" gradientUnits="userSpaceOnUse" x1="287.5311" y1="429.8219" x2="287.5311" y2="173.1066">
		<stop  offset="0" style="stop-color:#FDE8DE"/>
		<stop  offset="4.526391e-02" style="stop-color:#FBE3D7"/>
		<stop  offset="9.943102e-02" style="stop-color:#F5D4C4"/>
		<stop  offset="0.1582" style="stop-color:#EABBA6"/>
		<stop  offset="0.2202" style="stop-color:#DB997F"/>
		<stop  offset="0.2848" style="stop-color:#C76F52"/>
		<stop  offset="0.3505" style="stop-color:#AF3E26"/>
		<stop  offset="0.407" style="stop-color:#991005"/>
		<stop  offset="0.5861" style="stop-color:#971005"/>
		<stop  offset="0.6958" style="stop-color:#911003"/>
		<stop  offset="0.7867" style="stop-color:#861001"/>
		<stop  offset="0.8675" style="stop-color:#770F00"/>
		<stop  offset="0.9407" style="stop-color:#630C00"/>
		<stop  offset="1" style="stop-color:#4E0700"/>
	</linearGradient>
	<path class="st0" d="M141.8,123.6c0,0,14.9-3.3,12.6,8c-2.3,11.3-6.2,36.6-6.2,36.6l-6.4,29.4c0,0,12.4,2.6,3.1,10
		c-3.1,0.8-8.2,4.4-10.3,5.9c-2.1,1.5-15.7,11.6-17.3,12.1c-1.5,0.5-6.4,2.3-4.9,13.9s-0.5,10.3,4.4,10.3s5.9-2.3,4.1,6.4
		c9.3,1.3,25.2,0,25.2,0s3.6,1.5,4.1,3.3c0.5,1.8,2-2.3,4.4-2.3s4.6,1,7.2-0.5c2.6-1.5,6.2-7.5,8.8-8c2.6-0.5,16.7-7,19.1-7
		c2.3,0,9.6-2.9,10.1-2.9c0.5,0,0.3,8.8,0,9.5c-0.3,0.7,1.8-9.5,2.4-10.1c0.6-0.6,2.3-3.6,3.8-4.2c1.5-0.6,10.4-3,10.8-3.1
		c0.4-0.1,3.3,2.2,3.9,2.2c0.6,0,5.9-8.7,6.8-9.3c0.8-0.6,4.1,0.4,5.5-2.1c1.4-2.5,8.1-13.3,11.6-14.4c4.2-2,12-7.2,17-7.7
		c5-0.5,11.8-2.5,11.8-2.5s1.3-0.3,1.1-2.7c-0.2-2.4-1.7-4.6,0.8-4.4s4.9,0.1,4.9,0.1s2-1,1.7,1.5c-0.3,2.5-0.3,4.6,2.3,4.8
		c2.6,0.2,15.7,1.2,17.3,2.1c1.6,1,17,5.7,18.9,7.3c1.9,1.6,6.1,5.2,6.5,5.3c0.4,0.1,5.8-1,5.8-0.1s0.2,2.7-1.6,2.4
		c-1.8-0.3-4.3-0.3-2.4,1.9c1.9,2.2,5.5,0.2,7,1.7c1.5,1.5,3.6,6.3,4.5,6.7c1,0.3,3.4-0.1,4.5-0.7c1.2-0.6,10-1,10.7,0.4
		c0.6,1.4,2.2,3.4,3.6,3.6s2.7,8.8,3.5,4.9s-0.3-5.6,3.6-4.9s22.5,5.2,23.9,5.4c1.4,0.2,4.8-1.1,6.7,2.4c1.9,3.4,2.7,5,7,4.2
		c4.3-0.8,30.6-5.9,32.6-6.1c2-0.2,0.2-3.3,2.2-4.4c2-1.1,2.4-5.7,2.4-9s0.4-15-5.5-15.7c-6-0.7-35.3-14.8-36.6-15.4
		c-1.3-0.7-9-2.4-9.3-6.6c-0.2-4.2,1.3-6.4,3.1-6c1.8,0.4-0.7-17.2-0.7-19s-4.2-7.1-2.4-12.3c1.8-5.3,0.9-26.7,0.9-26.7
		s-3.1-9,3.7-9.3s17.2-6,21.6,0.9c4.4,6.8,26.2,27.8,30,31.5c3.7,3.7,26.5,33.7,28.9,36.2s25.8,28.2,27.1,29.8
		c1.3,1.5,7.9,6,6.4,20.9c-1.5,15-2.6,30.2-2.6,30.2s0.2,3.1,2.9,4.9c2.6,1.8,3.3,7.3,3.7,10.2c0.4,2.9-1.1,5.3-0.9,7.7
		c0.2,2.4-0.4,5.3-1.1,7.3c-0.7,2,0.9,1.8,0.7,5.1s-0.4,7.6-3.7,7s-2.9,20.5-3.1,23.4s1.5,17.2-6.6,23.1c-8.2,6-58,47-61.1,48.7
		c-3.1,1.8-16.8,14.1-20.3,16.5s-9.9,11-13.9,4.2s-18.3-31.3-19.2-32.6c-0.9-1.3-2.2-6.2,0.7-11c2.9-4.9,4-28.9,4.6-32.4
		c0.7-3.5,4.9-44.3,4.6-46.7c-0.2-2.4,5.1-15-4.4-11.9c-9.5,3.1-20.1,6-20.1,6s-7.3,10.6-18.5,9.7c-4.9,0.9-7.7,6.2-8.6,7.7
		c-0.9,1.5-6.6,2-9,6.2c-2.4,4.2-7.5,7.7-8.4,7.9s-5.5,6-7.9,7.3c-2.4,1.3-9.5,6.4-14.3,7.5c-4.9,1.1-26.5,4.9-34.8,0
		c-8.4-4.9-16.5-7.9-18.7-11c-2.2-3.1-9.9-9.7-14.8-8.6c-2.6-2.9-3.1-6.2-10.4-6.4c-7.3-0.2-16.5-1.8-17.9-5.7
		c-4.4-1.8-22.5-3.1-25.4-3.3c-2.9-0.2-7.7-4.2-9.7-4.2s-2.2-7.1-7.1-4.4c0.4,6.2,0.9,9.7,2.2,14.1c1.3,4.4,7.5,20.3,7.9,21.2
		c0.4,0.9,6.6,11,7.5,19c0.9,7.9,10.6,31.3,10.6,31.3s9.7,18.7,10.4,20.7c0.7,2-8.8,34.2-8.8,35.1c0,0.9,4.4,11.7-10.4,3.3
		c-14.8-8.4-56.9-35.3-56.9-35.3L84.4,377l-7.9-43.2c0,0-6-1.1-7.9-5.1c-2-4-7.1-29.8,0-36.2c0.2-10.8-6.4-38.1-5.7-39
		c0.7-0.9-1.1-12.3,7.7-19c2.2-7.9,4.2-9.3,6.8-10.4c1.1-4,14.3-25.6,14.3-25.6l33.7-51.1L141.8,123.6z"/>
	<path class="st1" d="M220.8,233.1c0,0-19.3,39.1,5.6,74.4"/>
	<path class="st1" d="M340.4,223.6c0,0,28.7,34.9,6.3,74.8"/>
</g>
<g id="Bras_Gauche">
	<linearGradient id="SVGID_2_" gradientUnits="userSpaceOnUse" x1="97.6616" y1="267.8763" x2="193.7935" y2="267.8763">
		<stop  offset="0" style="stop-color:#C4C4C4"/>
		<stop  offset="4.410845e-02" style="stop-color:#B5B5B5"/>
		<stop  offset="0.1494" style="stop-color:#939292"/>
		<stop  offset="0.2609" style="stop-color:#727272"/>
		<stop  offset="0.3778" style="stop-color:#575756"/>
		<stop  offset="0.5018" style="stop-color:#3F3F3E"/>
		<stop  offset="0.6365" style="stop-color:#272626"/>
		<stop  offset="0.7893" style="stop-color:#0C0C0B"/>
		<stop  offset="1" style="stop-color:#000000"/>
	</linearGradient>
	<path class="st2" d="M147,135l-49.3,93.1l4.6,21.9l-3.7,26.3l1.9,23.8l15.6,36.6l77.7,64l-69.4-68.2l-1.6-20.3
		c0,0-1.4-11.4,2.8-12.1c4.2-0.7,25.7-5.8,25.7-5.8s5.3-4.4,9-5.7s-32.3,3.2-32.3,3.2s-19.5-11-13.8-11s46.1-2.2,46.1-2.2
		s-4.4-2.2-9-2.3c-15.1-0.5-28.7-0.7-28.7-0.7l1.1-9.8l25.1-1c0,0,3.7-7.9-1.6-8.8c-5.3-0.9-26.7,0-26.7,0l0.8-6.6l-6.9-1.9
		c0,0-5.3-13.2-5.9-18C119.6,210.6,147,135,147,135z"/>
</g>
<g id="Bras_Droit">
	<linearGradient id="SVGID_3_" gradientUnits="userSpaceOnUse" x1="467.9619" y1="250.5808" x2="393.5839" y2="250.5808">
		<stop  offset="0" style="stop-color:#C4C4C4"/>
		<stop  offset="2.063793e-02" style="stop-color:#BEBEBD"/>
		<stop  offset="0.1384" style="stop-color:#999999"/>
		<stop  offset="0.2615" style="stop-color:#787877"/>
		<stop  offset="0.3885" style="stop-color:#5B5A5A"/>
		<stop  offset="0.5208" style="stop-color:#424141"/>
		<stop  offset="0.6604" style="stop-color:#292928"/>
		<stop  offset="0.8125" style="stop-color:#0D0D0D"/>
		<stop  offset="1" style="stop-color:#000000"/>
	</linearGradient>
	<path class="st3" d="M393.6,384.4l29.6-31.9l35.8-46.8l-3-18.1l10.2-13.9l1.9-23.9l-9.8-25.8l1.3-17.4l-61.9-89.9l18.7,37.8
		l31.2,48.7v19.3c0,0,1,6.6,0,8.5s-33.8,4.6-33.8,4.6s-1,0.5-0.8,1.8c0.2,1.3,10.1,1.2,12.1,2.1c4.7,2.3,14,4.4,14,4.4
		s5.5,7.4,3.4,10.5c-5.5,0.1-9.9-0.7-14.2-0.5c-7.9,0.3-16.7,2.3-21.7,4.6c-3.9,1.8,28,3.5,30,3.7c2,0.3,6.1-0.2,4.6,1.9
		c-1.5,2,1.1,4.7-5.6,4.6c-15.7-0.2-23.5,4.1-19.3,4.2s13.2,1.9,14.2,3.1c1,1.1,14.4,10.2,14.2,11.9c-0.3,1.7-0.4,19.6-0.4,19.6
		l-25.1,34.8L393.6,384.4z"/>
</g>
<g id="Rond_Centrale">
	<radialGradient id="SVGID_4_" cx="287.3201" cy="276.3414" r="41.6315" gradientUnits="userSpaceOnUse">
		<stop  offset="0" style="stop-color:#A8A8A8"/>
		<stop  offset="1" style="stop-color:#000000"/>
	</radialGradient>
	<circle class="st4" cx="287.3" cy="276.3" r="41.6"/>
	<g>
		
			<image style="overflow:visible;" width="595" height="595" xlink:href="87B964D93DAEA787.png"  transform="matrix(0.24 0 0 0.24 215.9207 205.942)">
		</image>
	</g>
	<polygon class="st5" points="269.8,267.5 286.9,261.8 304.9,266.6 304.8,286.9 287.7,292.9 269.8,287.4 	"/>
	<line class="st5" x1="282.1" y1="250" x2="289.5" y2="250"/>
	<line class="st5" x1="292.7" y1="250" x2="300" y2="252.1"/>
	<line class="st5" x1="302.9" y1="253.7" x2="308.4" y2="258.6"/>
	<line class="st5" x1="310.5" y1="260.9" x2="313.7" y2="266.9"/>
	<line class="st5" x1="315.1" y1="270.8" x2="315.1" y2="278.7"/>
	<line class="st5" x1="315.1" y1="282.3" x2="312.1" y2="288.6"/>
	<line class="st5" x1="310.5" y1="291.8" x2="305.7" y2="296.9"/>
	<line class="st5" x1="302.9" y1="298.5" x2="296.4" y2="301.8"/>
	<line class="st5" x1="292.7" y1="303.1" x2="285.8" y2="304.1"/>
	<line class="st5" x1="282.1" y1="304.1" x2="276.1" y2="301.8"/>
	<line class="st5" x1="273.1" y1="300" x2="266.6" y2="294.4"/>
	<line class="st5" x1="264.8" y1="291.8" x2="261.3" y2="285.5"/>
	<line class="st5" x1="260.2" y1="282.3" x2="260.2" y2="274.7"/>
	<line class="st5" x1="260.2" y1="270.8" x2="263" y2="265"/>
	<line class="st5" x1="264.8" y1="262" x2="269.2" y2="256.1"/>
	<line class="st5" x1="271.7" y1="254.6" x2="279.1" y2="251"/>
	<linearGradient id="SVGID_5_" gradientUnits="userSpaceOnUse" x1="295.3698" y1="212.0669" x2="295.3698" y2="196.6388">
		<stop  offset="4.504505e-03" style="stop-color:#363636"/>
		<stop  offset="1" style="stop-color:#000000"/>
	</linearGradient>
	<path class="st6" d="M301.6,198.5c0,0,2.6,11.3,1.2,11.9c-1.5,0.5-12.7,3-13.1,0.8c-0.4-2.2-2.2-14.5-2.2-14.5"/>
	<linearGradient id="SVGID_6_" gradientUnits="userSpaceOnUse" x1="265.1407" y1="215.2022" x2="265.1407" y2="198.1444">
		<stop  offset="4.504505e-03" style="stop-color:#363636"/>
		<stop  offset="1" style="stop-color:#000000"/>
	</linearGradient>
	<path class="st7" d="M269.6,198.1c0,0,5.1,15.8,1.3,16.4c-3.8,0.7-13.2,1.7-13-2.5c0.3-4.2,0-11.4,0-11.4"/>
	<linearGradient id="SVGID_7_" gradientUnits="userSpaceOnUse" x1="249.5281" y1="215.2571" x2="249.5281" y2="202.2895">
		<stop  offset="4.504505e-03" style="stop-color:#363636"/>
		<stop  offset="1" style="stop-color:#000000"/>
	</linearGradient>
	<path class="st8" d="M246.3,206.7c0,0-1.5,8.6,0.8,8.5c2.2-0.1,6.2,0.8,6.1-2.5c-0.1-3.3,0-10.4,0-10.4"/>
	<linearGradient id="SVGID_8_" gradientUnits="userSpaceOnUse" x1="310.0889" y1="209.6872" x2="310.0889" y2="200.4291">
		<stop  offset="4.504505e-03" style="stop-color:#363636"/>
		<stop  offset="1" style="stop-color:#000000"/>
	</linearGradient>
	<path class="st9" d="M312,202.3c0,0,2.5,6,0.9,6.5c-1.6,0.5-4.9,2.2-5.3-1.1c-0.4-3.3-1-7.3-1-7.3"/>
</g>
<g id="Aile">
	<linearGradient id="SVGID_9_" gradientUnits="userSpaceOnUse" x1="72.7547" y1="265.8813" x2="90.3102" y2="265.8813">
		<stop  offset="4.504505e-03" style="stop-color:#363636"/>
		<stop  offset="1" style="stop-color:#000000"/>
	</linearGradient>
	<polygon class="st10" points="72.8,258.6 88.5,247.7 90.3,272.9 76.8,284.1 	"/>
	<linearGradient id="SVGID_10_" gradientUnits="userSpaceOnUse" x1="81.5325" y1="183.6478" x2="146.9805" y2="183.6478">
		<stop  offset="4.504505e-03" style="stop-color:#363636"/>
		<stop  offset="1" style="stop-color:#000000"/>
	</linearGradient>
	<polygon class="st11" points="81.5,232.3 141.1,135 147,135 98.9,224.9 	"/>
	<linearGradient id="SVGID_11_" gradientUnits="userSpaceOnUse" x1="117.1054" y1="175.1419" x2="146.4187" y2="175.1419">
		<stop  offset="4.504505e-03" style="stop-color:#363636"/>
		<stop  offset="1" style="stop-color:#000000"/>
	</linearGradient>
	<polygon class="st12" points="117.1,212.1 146.4,138.2 140.2,198.1 	"/>
	<linearGradient id="SVGID_12_" gradientUnits="userSpaceOnUse" x1="84.6764" y1="339.1264" x2="105.3513" y2="339.1264">
		<stop  offset="4.504505e-03" style="stop-color:#363636"/>
		<stop  offset="1" style="stop-color:#000000"/>
	</linearGradient>
	<polygon class="st13" points="84.7,333.8 98.2,320.6 105.4,337.5 90.3,357.6 	"/>
	<linearGradient id="SVGID_13_" gradientUnits="userSpaceOnUse" x1="100.4697" y1="384.3529" x2="190.9229" y2="384.3529">
		<stop  offset="4.504505e-03" style="stop-color:#363636"/>
		<stop  offset="1" style="stop-color:#000000"/>
	</linearGradient>
	<polygon class="st14" points="100.5,373.7 119.7,344.4 190.9,408.2 186.3,424.3 	"/>
	<linearGradient id="SVGID_14_" gradientUnits="userSpaceOnUse" x1="128.0364" y1="344.5382" x2="192.6458" y2="344.5382">
		<stop  offset="4.504505e-03" style="stop-color:#363636"/>
		<stop  offset="1" style="stop-color:#000000"/>
	</linearGradient>
	<path class="st15" d="M128,329.8c0,0,23.5-30.9,32.3-31.4c0,2.6,32.3,92.3,32.3,92.3L128,329.8z"/>
	<linearGradient id="SVGID_15_" gradientUnits="userSpaceOnUse" x1="391.6762" y1="322.3143" x2="442.1151" y2="322.3143">
		<stop  offset="4.504505e-03" style="stop-color:#363636"/>
		<stop  offset="1" style="stop-color:#000000"/>
	</linearGradient>
	<polygon class="st16" points="400.4,272.9 391.7,371.7 442.1,306.2 	"/>
	<linearGradient id="SVGID_16_" gradientUnits="userSpaceOnUse" x1="398.4279" y1="361.5611" x2="484.6108" y2="361.5611">
		<stop  offset="4.504505e-03" style="stop-color:#363636"/>
		<stop  offset="1" style="stop-color:#000000"/>
	</linearGradient>
	<polygon class="st17" points="455.2,318.1 484.6,342.7 409.9,405 398.4,390.7 	"/>
	<linearGradient id="SVGID_17_" gradientUnits="userSpaceOnUse" x1="470.7104" y1="307.4955" x2="495.334" y2="307.4955">
		<stop  offset="4.504505e-03" style="stop-color:#363636"/>
		<stop  offset="1" style="stop-color:#000000"/>
	</linearGradient>
	<polygon class="st18" points="475.5,290.2 495.3,301.8 495.3,324.8 470.7,307.5 	"/>
	<linearGradient id="SVGID_18_" gradientUnits="userSpaceOnUse" x1="475.4762" y1="235.7099" x2="498.5113" y2="235.7099">
		<stop  offset="4.504505e-03" style="stop-color:#363636"/>
		<stop  offset="1" style="stop-color:#000000"/>
	</linearGradient>
	<polygon class="st19" points="475.5,220.4 498.5,227.5 498.5,251 478.7,244.2 	"/>
	<linearGradient id="SVGID_19_" gradientUnits="userSpaceOnUse" x1="403.5909" y1="163.0837" x2="491.3625" y2="163.0837">
		<stop  offset="4.504505e-03" style="stop-color:#363636"/>
		<stop  offset="1" style="stop-color:#000000"/>
	</linearGradient>
	<polygon class="st20" points="403.6,119.5 413.9,119.5 491.4,206.7 459.6,198.1 	"/>
	<linearGradient id="SVGID_20_" gradientUnits="userSpaceOnUse" x1="394.4563" y1="158.2169" x2="438.1435" y2="158.2169">
		<stop  offset="4.504505e-03" style="stop-color:#363636"/>
		<stop  offset="1" style="stop-color:#000000"/>
	</linearGradient>
	<polygon class="st21" points="394.5,124.3 438.1,192.2 396.4,176.7 	"/>
</g>
</svg>
