<?xml version="1.0" encoding="utf-8"?>
<!-- Generator: Adobe Illustrator 19.1.0, SVG Export Plug-In . SVG Version: 6.00 Build 0)  -->
<svg version="1.1" xmlns="http://www.w3.org/2000/svg" xmlns:xlink="http://www.w3.org/1999/xlink" x="0px" y="0px"
	 viewBox="0 0 600 600" style="enable-background:new 0 0 600 600;" xml:space="preserve">
<style type="text/css">
	.st0{fill:url(#SVGID_1_);stroke:#010202;stroke-width:2;stroke-miterlimit:10;}
	.st1{fill:#3A3A3A;stroke:#010202;stroke-miterlimit:10;}
	.st2{fill:url(#SVGID_2_);stroke:#010202;stroke-miterlimit:10;}
	.st3{fill:#010202;stroke:#010202;stroke-miterlimit:10;}
	.st4{fill:url(#SVGID_3_);stroke:#010202;stroke-miterlimit:10;}
	.st5{fill:url(#SVGID_4_);stroke:#010202;stroke-miterlimit:10;}
	.st6{fill:url(#SVGID_5_);stroke:#010202;stroke-miterlimit:10;}
	.st7{fill:url(#SVGID_6_);stroke:#010202;stroke-miterlimit:10;}
	.st8{fill:url(#SVGID_7_);stroke:#010202;stroke-miterlimit:10;}
	.st9{fill:url(#SVGID_8_);stroke:#010202;stroke-miterlimit:10;}
	.st10{fill:url(#SVGID_9_);stroke:#010202;stroke-miterlimit:10;}
	.st11{fill:none;stroke:#010202;stroke-miterlimit:10;}
	.st12{fill:url(#SVGID_10_);stroke:#010202;stroke-miterlimit:10;}
	.st13{fill:url(#SVGID_11_);stroke:#010202;stroke-miterlimit:10;}
	.st14{fill:url(#SVGID_12_);stroke:#010202;stroke-miterlimit:10;}
	.st15{fill:url(#SVGID_13_);stroke:#010202;stroke-miterlimit:10;}
	.st16{fill:url(#SVGID_14_);stroke:#010202;stroke-miterlimit:10;}
	.st17{fill:url(#SVGID_15_);stroke:#010202;stroke-miterlimit:10;}
	.st18{fill:url(#SVGID_16_);stroke:#010202;stroke-miterlimit:10;}
	.st19{fill:url(#SVGID_17_);stroke:#010202;stroke-miterlimit:10;}
</style>
<g id="Contours">
	<linearGradient id="SVGID_1_" gradientUnits="userSpaceOnUse" x1="328.209" y1="360.7157" x2="328.209" y2="121.168">
		<stop  offset="0" style="stop-color:#FFFFFF"/>
		<stop  offset="0.1737" style="stop-color:#D0CFCF"/>
		<stop  offset="0.3971" style="stop-color:#909090"/>
		<stop  offset="0.5" style="stop-color:#757474"/>
		<stop  offset="1" style="stop-color:#373636"/>
	</linearGradient>
	<path class="st0" d="M204,185c0,0,40.3-9.8,44-11.2s14.8-6.6,20.4-2.1c5.6,4.4,9.8-1.8,9.8-1.8s4.2,1.1,2.8,6.5
		c2.1-1.9,5.2-3.3,6.1-3.3c0.9,0,4.4-1.6,7-1.9s9.6-0.2,11.9-3.7s5.6-8,12.6-8.4c7-0.5,24.1,0,24.1,0s7.7,2.6,8.2,10.5
		c4.9,0.5,10.8,1.2,13.6,2.4s7.7,4.2,10.1,4.2s-0.5-5.2,2.6-5.2s9.6,1.9,11.5-0.2c1.9-2.1,9.8-1.6,13.3,0.2
		c3.5,1.9,30.4,8.2,30.4,8.2s24.4,9.6,21.1,5.9c-3.3-3.7-9.4-10.8-9.4-10.8l-23.9-26l-18.7-19.4c0,0-3.9-13.2,2.9-4.9
		s27.3,29.6,27.3,29.6l38,40.8l13.8,15.6c0,0,5.6-3.1,8.4,0.9c2.8,4.1,6,8.9,2.6,10.4c-0.9,1.1,0.8,3.3,0.8,3.3l3.1,4.7
		c0,0,3.1,0.6,2.8,2.3c-0.3,1.7-1.1,4.1-4-0.7s0.1,5.7,0.9,4.9c0.6,0.4,1.5,1.4,0,1.8c-2.8,2.2-3.3,0.3-2.9-0.6s-0.2-4.7-2-4.9
		c-1.8-0.2-7.8-1.1-8,0.3c-0.2,1.4-3.6,10.4-3.6,10.4L464.1,288l-18.8,52.1c0,0,1.4,2.7-4.1,6c-5.5,3.2-22.9,12.1-22.9,12.1
		s-4.8,3.4-10.4,0c-5.6-3.4-12.1-3.8-13-10.8c-0.9-7-3.1-13.5-3.1-13.5s-1.7-6.3,3.6-5.8c-0.9-6.2-3.2-13.2-2.4-14.4
		s-0.9-4.8,3.6-4.8c0,0,0.9-5.1,3.1-5.3c2.2-0.2,1.4-18.3,1.4-18.3s2.7-5.1,1.2-8c-1.5-2.9-2.9-11.3-0.3-10.8
		c2.6,0.5-0.2-6.8-2.9-2.4c-2.7,4.4-9.7,4.8-10.6-1.9c-0.9-6.7-1-11.4,2.9-13.3c3.9-1.9-8-0.3-9.7,0.5c-1.7,0.9-23.4,2.7-25.5,3.6
		c-2.1,0.9-3.2,5-5.3,7.3s-17.1,3.6-22,3.2c-5-0.3-17.8,2.1-23.6-8c-8-2.6-24.3-5.8-26.8-5.5s-16.1-4.3-10.3,1.4
		c2.4,2.6,0.5,10.9,0.3,11.8s-3.1,6.7-6.8,3.1c-3.8-3.6-6.2-3.2-6.2-1c0,2.2,3.6,0.3,3.8,2.6s-0.7,6.7-0.7,20.2s-0.9,16.7,2.4,19.6
		c3.2,2.9,8,0.9,6.7,12.6c-1,4.3-3.1,7.7-1.5,8.5c1.5,0.9,3.2,0.5,2.1,6.7c-1.2,6.2-1.9,11.1-2.7,14.7c-0.9,3.6-12.3,8.5-13.2,9.4
		c-0.9,0.9-4.6,2.2-10.1-1.3c-5.5-3.6-15.5-8.7-16.7-9.6c-1.2-0.9-9.7-1.5-14.9-18.3c-5.1-16.7-18.1-47.3-18.8-48.9
		c-0.7-1.5-12.8-32.1-13.8-35.5c-1-3.4-6-13.7-7.3-13.3c-1.4,0.3-5.1-0.7-6.4,1c-1.4,1.8-2.7,2.1-2.6,3.1s-2.2,4-3.6,2.6
		c-0.9-0.9,0.7-3.1,1.3-4.1c1-1.7,3.6-6.1,3.6-6.1s-0.1-1.8-1.3-0.5c-1.2,1.3-2.8,3.3-3.3,3.6c-0.5,0.3-1.5,2.4-2.8,0
		c-1.3-2.5,0.3-2.6,1.1-2.6s4.2-4.2,4.3-5c0.1-0.8,3.3-3.6,1.2-4.4c-2.1-0.8-2.3-5.6-0.3-6.7c1.9-1.1,5.1-4.8,10.7-3.8
		c3.6-2.3,12.3-14.4,12.5-14.5c0.2-0.1,13.1-15.4,13.7-15.9c0.6-0.5,23.1-23.2,23.1-23.2l16.1-17l13.1-15.2c0,0,5.7-6.2,2.9,3.4
		c-7.9,11-16.1,18.4-16.1,18.4l-15.9,17.2L204,185z"/>
	<path class="st1" d="M172,234c0.1,0.2,3.7-6.3,3.7-8s-3.1-2.2-4.4-4.3c-1.3-2.1,1.3-3.8,0.2-6.1c-0.9-1.8-2.3,2.5-3,4.6
		c-0.8,2.1-3,1.1-5.1,0.9c-1.1-0.1-2.4,3.8-2.4,3.8l-3,4c0,0-3,1.5-2.9,2.1c0.1,0.6,1.7,3.9,3.1,1.8s4-4.4,4-4.4s1.2,0.2,0.4,1.4
		c-0.8,1.3-2.6,4.1-2.6,4.1s-1.1,1.6-2.1,2.8c-0.5,0.6-0.2,3.2,0.4,3.3s2.6-1,3.1-2.5s2.3-3.9,3.3-4.3c1-0.4,3.8-0.5,4.6-0.5
		C170.2,232.8,172,234,172,234z"/>
	<path class="st1" d="M494.6,221.2c0,0-3.8-3.1-5.6-2.2c-1.8,0.9-0.5,2.3,0,4.4c0.5,2.1,0.6,3.8-1.5,2.6c-2.1-1.1-4.9-1.3-4,1
		s1.9,5.4,1.9,5.4s1-0.7,1.9-0.8c0.9,0,3.4-0.1,4.2,0.2c0.8,0.3,3.3,0.9,3.6,2c0.1,0.6,0.1,4,0.5,4.5s4.3-1.2,3.9-1.8
		s-1.8-1.3-2.3-2.3c-0.6-1.2-1.2-4.4-1.1-4.8c0-0.4,0.8,0.4,1.1,1s1.6,2.1,2,2.4c0.5,0.3,1.7,1.2,2.1-0.7s-0.3-2.1-0.7-2.3
		c-0.5-0.2-2.9-2-3.2-2.5C496.9,226.9,493.8,222.1,494.6,221.2z"/>
	<linearGradient id="SVGID_2_" gradientUnits="userSpaceOnUse" x1="230.6743" y1="352.2908" x2="230.6743" y2="327.9822">
		<stop  offset="0" style="stop-color:#4B4B4B"/>
		<stop  offset="0.3867" style="stop-color:#282828"/>
		<stop  offset="0.7769" style="stop-color:#0B0B0B"/>
		<stop  offset="1" style="stop-color:#000000"/>
	</linearGradient>
	<path class="st2" d="M216.7,328c0,0,4.6,11.5,7.4,14.1c2.8,2.6,20.5,10.2,20.5,10.2v-12.2L216.7,328z"/>
	<line class="st3" x1="255.1" y1="292.7" x2="244.6" y2="340.1"/>
	<linearGradient id="SVGID_3_" gradientUnits="userSpaceOnUse" x1="430.2608" y1="351.2673" x2="430.2608" y2="327.9822">
		<stop  offset="0" style="stop-color:#4B4B4B"/>
		<stop  offset="0.3867" style="stop-color:#282828"/>
		<stop  offset="0.7769" style="stop-color:#0B0B0B"/>
		<stop  offset="1" style="stop-color:#000000"/>
	</linearGradient>
	<polygon class="st4" points="443.4,328 440.4,340.1 417.1,351.3 417.1,340.1 	"/>
	<line class="st3" x1="405.1" y1="300" x2="417.1" y2="340.1"/>
	<linearGradient id="SVGID_4_" gradientUnits="userSpaceOnUse" x1="446.173" y1="325.6877" x2="434.1419" y2="311.3496">
		<stop  offset="0" style="stop-color:#4B4B4B"/>
		<stop  offset="0.3867" style="stop-color:#282828"/>
		<stop  offset="0.7769" style="stop-color:#0B0B0B"/>
		<stop  offset="1" style="stop-color:#000000"/>
	</linearGradient>
	<line class="st5" x1="443.4" y1="328" x2="436.9" y2="309.1"/>
	<linearGradient id="SVGID_5_" gradientUnits="userSpaceOnUse" x1="221.9447" y1="323.6056" x2="215.5017" y2="315.927">
		<stop  offset="0" style="stop-color:#4B4B4B"/>
		<stop  offset="0.3867" style="stop-color:#282828"/>
		<stop  offset="0.7769" style="stop-color:#0B0B0B"/>
		<stop  offset="1" style="stop-color:#000000"/>
	</linearGradient>
	<line class="st6" x1="216.7" y1="328" x2="220.7" y2="311.6"/>
</g>
<g id="Ailes">
	<linearGradient id="SVGID_6_" gradientUnits="userSpaceOnUse" x1="226.1428" y1="306.0368" x2="226.1428" y2="177.3126">
		<stop  offset="0" style="stop-color:#4B4B4B"/>
		<stop  offset="0.3867" style="stop-color:#282828"/>
		<stop  offset="0.7769" style="stop-color:#0B0B0B"/>
		<stop  offset="1" style="stop-color:#000000"/>
	</linearGradient>
	<path class="st7" d="M269.4,177.3c0,0-74.7,22.9-76.1,23.7c-1.4,0.9-12,10.9-10.3,18.9s40.3,83.8,40.3,83.8s8.9,5.1,12.9,0
		c4-5.1,6.6-22.6,6.6-22.6s-19.9-3.1-16.7-12c3.2-8.9,23.8-77.5,23.8-77.5s12.6-4.9,14.6-6.6C266.5,183.3,270.3,183,269.4,177.3z"/>
	<linearGradient id="SVGID_7_" gradientUnits="userSpaceOnUse" x1="432.1344" y1="306.4958" x2="432.1344" y2="177.3126">
		<stop  offset="0" style="stop-color:#4B4B4B"/>
		<stop  offset="0.3867" style="stop-color:#282828"/>
		<stop  offset="0.7769" style="stop-color:#0B0B0B"/>
		<stop  offset="1" style="stop-color:#000000"/>
	</linearGradient>
	<path class="st8" d="M434.7,273.1c0,0-14.9,2.6-15.7,6s4.3,26.9,4.3,26.9s14,3.7,17.4-10c3.4-13.7,18-38.3,18-38.3s-5.1-2.3-3.7-6
		c1.4-3.7,7.2,0,7.2,0l2.3-7.7c0,0-7.4-2-6-4.6c1.4-2.6,6.6-3.1,8.3-1.1c1.7,2,8.9-20.3,8.9-20.3s0.6-15.2-12-18.6
		c-12.6-3.4-74.4-22-74.4-22s-2.3,3.7,2.6,6.3c4.9,2.6,15.4,5.7,17.2,12C410.7,201.9,434.7,273.1,434.7,273.1z"/>
</g>
<g id="Tete">
	<linearGradient id="SVGID_8_" gradientUnits="userSpaceOnUse" x1="258.002" y1="203.5894" x2="302.5612" y2="203.5894">
		<stop  offset="0" style="stop-color:#4B4B4B"/>
		<stop  offset="0.3867" style="stop-color:#282828"/>
		<stop  offset="0.7769" style="stop-color:#0B0B0B"/>
		<stop  offset="1" style="stop-color:#000000"/>
	</linearGradient>
	<polygon class="st9" points="259.3,204.4 302.6,196.6 300.9,205.9 258,210.6 	"/>
	<linearGradient id="SVGID_9_" gradientUnits="userSpaceOnUse" x1="389.0669" y1="219.9974" x2="363.1062" y2="189.0585">
		<stop  offset="0" style="stop-color:#4B4B4B"/>
		<stop  offset="0.3867" style="stop-color:#282828"/>
		<stop  offset="0.7769" style="stop-color:#0B0B0B"/>
		<stop  offset="1" style="stop-color:#000000"/>
	</linearGradient>
	<polygon class="st10" points="352.6,197.9 353.1,205.1 400.3,210.6 399.4,204.2 	"/>
	<line class="st11" x1="298.2" y1="198.9" x2="298.2" y2="203.6"/>
	<linearGradient id="SVGID_10_" gradientUnits="userSpaceOnUse" x1="291.9014" y1="202.4219" x2="291.9014" y2="202.4219">
		<stop  offset="0" style="stop-color:#4B4B4B"/>
		<stop  offset="0.3867" style="stop-color:#282828"/>
		<stop  offset="0.7769" style="stop-color:#0B0B0B"/>
		<stop  offset="1" style="stop-color:#000000"/>
	</linearGradient>
	<line class="st12" x1="291.9" y1="200.6" x2="291.9" y2="204.2"/>
	<line class="st11" x1="285.1" y1="202.4" x2="285.1" y2="205.9"/>
	<path class="st11" d="M287.6,212.2"/>
	<line class="st11" x1="278.3" y1="203.6" x2="278.3" y2="206.7"/>
	<line class="st11" x1="271.2" y1="205.1" x2="271.2" y2="207.3"/>
	<line class="st11" x1="264.5" y1="205.9" x2="264.5" y2="208"/>
	<line class="st11" x1="358.9" y1="200.6" x2="358.9" y2="204.2"/>
	<line class="st11" x1="366.5" y1="201.3" x2="366.5" y2="205.3"/>
	<line class="st11" x1="373.1" y1="202.4" x2="373.1" y2="205.9"/>
	<line class="st11" x1="379.5" y1="203.6" x2="379.5" y2="206.7"/>
	<line class="st11" x1="386.9" y1="204.2" x2="386.9" y2="208"/>
	<line class="st11" x1="392.8" y1="205.1" x2="392.8" y2="208"/>
	
		<radialGradient id="SVGID_11_" cx="328.8101" cy="200.1106" r="62.7613" gradientTransform="matrix(4.489659e-11 -1 2 8.979319e-11 -71.4112 528.9207)" gradientUnits="userSpaceOnUse">
		<stop  offset="0" style="stop-color:#797979"/>
		<stop  offset="0.481" style="stop-color:#757474"/>
		<stop  offset="1" style="stop-color:#373636"/>
	</radialGradient>
	<path class="st13" d="M304.8,169.8c0,0-2.6,10.1,0,13.2s-2.8,10.3-2.3,12.1c0.6,1.8-2.6,16.9-4.3,20.3c-1.7,3.3-33.3,2-33.7,2
		s-8.3-1.6-9.8,2c-1.6,3.6-7,20.3-3.1,21.7s13.5-1.6,16.8-2.2c3.2-0.6,0.9-3.7,6.7-2.8c5.8,0.9,32.7,0.2,32.7,0.2s5.2-14.4,8.6-14.4
		s27.5,0.2,27.5,0.2s4.7,13.1,7.7,13.8s31.4-0.9,31.4-0.9l24.3-0.9c0,0,1.1-5.8-1.9-6c-3-0.2-3.9-6.7-1.7-8.4c2.2-1.7-1.7-3.7-9-2.8
		s-28.8-0.6-31.8-1.5s-8.8-8.3-9.7-10.2c-0.9-1.9,0-11.3-1.3-12.2c-1.3-0.9,2.8-19.8-0.7-23.4c0,0-0.5-4.8-2.8-6.9
		c-2.3-2.1-2.8-3.7-10-3.8c-7.3-0.1-20.1,0.2-20.1,0.2s-4.9,0.6-7.2,2.9C308.4,164.3,305.1,168.6,304.8,169.8z"/>
	<linearGradient id="SVGID_12_" gradientUnits="userSpaceOnUse" x1="328.9986" y1="197.9158" x2="328.9986" y2="170.2462">
		<stop  offset="0" style="stop-color:#4B4B4B"/>
		<stop  offset="0.3867" style="stop-color:#282828"/>
		<stop  offset="0.7769" style="stop-color:#0B0B0B"/>
		<stop  offset="1" style="stop-color:#000000"/>
	</linearGradient>
	<path class="st14" d="M324.5,178l-0.7-7.8h9v7.8l9.3,0.6v8l-6.9-0.6c0,0-0.5,3.3-2.2,3.3s-1.4,7.9-1.4,7.9l-6,0.6l0.1-7.5
		c0,0-2.9-1.3-1.9-2.9s-7.8-0.2-7.8-0.2v-8.6L324.5,178z"/>
	<linearGradient id="SVGID_13_" gradientUnits="userSpaceOnUse" x1="338.9791" y1="169.2847" x2="341.6846" y2="169.2847">
		<stop  offset="0" style="stop-color:#4B4B4B"/>
		<stop  offset="0.3867" style="stop-color:#282828"/>
		<stop  offset="0.7769" style="stop-color:#0B0B0B"/>
		<stop  offset="1" style="stop-color:#000000"/>
	</linearGradient>
	<path class="st15" d="M339,166.9c0,0-0.5,3.7,1.2,4.7s1.4-4.7,1.4-4.7H339z"/>
	<linearGradient id="SVGID_14_" gradientUnits="userSpaceOnUse" x1="315.0995" y1="169.2995" x2="318.1285" y2="169.2995">
		<stop  offset="0" style="stop-color:#4B4B4B"/>
		<stop  offset="0.3867" style="stop-color:#282828"/>
		<stop  offset="0.7769" style="stop-color:#0B0B0B"/>
		<stop  offset="1" style="stop-color:#000000"/>
	</linearGradient>
	<path class="st16" d="M315.1,166.9c0,0-0.4,5.2,1.4,4.8c1.8-0.5,1.6-4.8,1.6-4.8H315.1z"/>
	<line class="st11" x1="339.8" y1="194.2" x2="344.8" y2="194.2"/>
	<line class="st11" x1="313.9" y1="194.2" x2="319.3" y2="194.2"/>
	<linearGradient id="SVGID_15_" gradientUnits="userSpaceOnUse" x1="329.6149" y1="251.3295" x2="329.6149" y2="221.6272">
		<stop  offset="0" style="stop-color:#4B4B4B"/>
		<stop  offset="0.3867" style="stop-color:#282828"/>
		<stop  offset="0.7769" style="stop-color:#0B0B0B"/>
		<stop  offset="1" style="stop-color:#000000"/>
	</linearGradient>
	<path class="st17" d="M307.7,236.1c0,0,8.8,9.8,14.9,9.8c1.9,3.1-0.3,5.4,6.2,5.4s4.7-5,4.7-5s12.6,2.9,18-10.6
		c-1.9-1.6-5.2-7.6-5.9-9.1c-0.6-1.5-1.9-4.7-1.9-4.7l-26.5-0.2c0,0-1.7-0.7-3.3,1.7C312.3,225.8,307.7,236.1,307.7,236.1z"/>
	<path class="st3" d="M321.3,245.8c0,0,1.7-4.7,3.3-4.9s3.5,4,4.4,2.4c0.9-1.6,3.7-5.1,5.5-2.1c1.7,3,2.5,5.3,2.1,5.3
		c0,0-0.2,0.1-1.6-0.1s-1.1,0.6-1.2,1.4c-0.2,0.9-0.6,2.2-1.5,2.6c-0.9,0.4-4.4,1.3-6.9,0.3c-1.5-1.6-2-3.2-2.7-4.9
		C321.9,246,321.3,245.8,321.3,245.8z"/>
	<linearGradient id="SVGID_16_" gradientUnits="userSpaceOnUse" x1="315.698" y1="259.7212" x2="315.698" y2="253.9754">
		<stop  offset="0" style="stop-color:#4B4B4B"/>
		<stop  offset="0.3867" style="stop-color:#282828"/>
		<stop  offset="0.7769" style="stop-color:#0B0B0B"/>
		<stop  offset="1" style="stop-color:#000000"/>
	</linearGradient>
	<path class="st18" d="M311,255c0,0,8.9-2.3,9.4,0s-0.5,5-2,4.7C316.8,259.4,313,260.2,311,255z"/>
	<linearGradient id="SVGID_17_" gradientUnits="userSpaceOnUse" x1="343.9799" y1="259.9597" x2="343.9799" y2="253.9754">
		<stop  offset="0" style="stop-color:#4B4B4B"/>
		<stop  offset="0.3867" style="stop-color:#282828"/>
		<stop  offset="0.7769" style="stop-color:#0B0B0B"/>
		<stop  offset="1" style="stop-color:#000000"/>
	</linearGradient>
	<path class="st19" d="M339,254h10.4c0,0-1.7,5.9-3.3,5.7C344.4,259.5,336.7,262.1,339,254z"/>
	<path class="st11" d="M311,239.4c0,0,4.6-8.6,8.4-9.8"/>
	<path class="st11" d="M348.2,241.3c0,0-3.1-9.8-9.6-10.1"/>
</g>
</svg>
